<svg xmlns="http://www.w3.org/2000/svg" xmlns:svg="http://www.w3.org/2000/svg" id="svg2" width="744.094" height="1052.362" version="1.1"><metadata id="metadata7"/><g id="layer1"><g id="g3009"><g id="g3010"><text id="text3878" x="301.676" y="502.334" fill="#000" fill-opacity="1" stroke="none" font-family="Sans" font-size="10" font-style="normal" font-weight="normal" letter-spacing="0" transform="matrix(0.99999813,-0.00193283,0.00193283,0.99999813,0,0)" word-spacing="0" xml:space="preserve" style="line-height:125%"><tspan style="-inkscape-font-specification:Times New Roman" id="tspan3880" x="301.676" y="502.334" font-family="Times New Roman" font-size="48">DodoHand</tspan></text><text id="text3223" x="197.143" y="55.219" fill="#000" fill-opacity="1" stroke="none" font-family="Sans" font-size="10" font-style="normal" font-weight="normal" letter-spacing="0" word-spacing="0" xml:space="preserve" style="line-height:125%"><tspan id="tspan3400" x="197.143" y="55.219">/*</tspan><tspan id="tspan3521" x="197.143" y="67.719"> This file is part of the DodoHand project. This project aims to create </tspan><tspan id="tspan3523" x="197.143" y="80.219"> an open implementation of the DataHand keyboard, capable of being created</tspan><tspan id="tspan3525" x="197.143" y="92.719"> with commercial 3D printing services.</tspan><tspan id="tspan3529" x="197.143" y="117.719"> Copyright (C) 2013 Scott Fohey</tspan><tspan id="tspan3533" x="197.143" y="142.719"> This program is free software: you can redistribute it and/or modify</tspan><tspan id="tspan3535" x="197.143" y="155.219"> it under the terms of the GNU General Public License as published by</tspan><tspan id="tspan3537" x="197.143" y="167.719"> the Free Software Foundation, either version 3 of the License, or</tspan><tspan id="tspan3539" x="197.143" y="180.219"> (at your option) any later version.</tspan><tspan id="tspan3543" x="197.143" y="205.219"> This program is distributed in the hope that it will be useful,</tspan><tspan id="tspan3545" x="197.143" y="217.719"> but WITHOUT ANY WARRANTY; without even the implied warranty of</tspan><tspan id="tspan3547" x="197.143" y="230.219"> MERCHANTABILITY or FITNESS FOR A PARTICULAR PURPOSE. See the</tspan><tspan id="tspan3549" x="197.143" y="242.719"> GNU General Public License for more details.</tspan><tspan id="tspan3553" x="197.143" y="267.719"> You should have received a copy of the GNU General Public License</tspan><tspan id="tspan3555" x="197.143" y="280.219"> along with this program. If not, see &lt;http://www.gnu.org/licenses/&gt;.</tspan><tspan id="tspan3557" x="197.143" y="292.719">*/</tspan></text><g id="g3044"><g id="g3028"><path id="path2996" fill="none" stroke="#000" stroke-dasharray="none" stroke-linecap="round" stroke-linejoin="miter" stroke-miterlimit="4" stroke-opacity="1" stroke-width="12" d="m 509.92763,366.98148 -25.6455,38.98857"/><path id="path2996-3" fill="none" stroke="#000" stroke-dasharray="none" stroke-linecap="round" stroke-linejoin="miter" stroke-miterlimit="4" stroke-opacity="1" stroke-width="12" d="M 489.06152,373.16357 471.1373,400.09775"/><path id="path2996-3-4" fill="none" stroke="#000" stroke-dasharray="none" stroke-linecap="round" stroke-linejoin="miter" stroke-miterlimit="4" stroke-opacity="1" stroke-width="12" d="m 516.09021,382.41219 -18.87226,28.41012" transform="translate(0.53571429,0.26785714)"/><path id="path2996-3-4-4" fill="none" stroke="#000" stroke-dasharray="none" stroke-linecap="round" stroke-linejoin="miter" stroke-miterlimit="4" stroke-opacity="1" stroke-width="12" d="m 462.98307,385.94677 c 0,0 0.27475,0.17959 -19.06432,29.46364 -18.76667,28.4173 30.92643,54.38996 47.21911,30.70869 16.94244,-24.62565 17.00075,-24.71729 17.00075,-24.71729"/><path id="path2996-3-1" fill="none" stroke="#000" stroke-dasharray="none" stroke-linecap="round" stroke-linejoin="miter" stroke-miterlimit="4" stroke-opacity="1" stroke-width="12" d="M 488.76164,423.23653 462.98932,412.17108"/><path id="path3838" fill="#000" fill-opacity="1" stroke="none" d="m 506.17332,434.70744 12.58439,-17.88059 c 0,0 -1.72602,-0.99099 -2.66084,-1.31484 -0.96767,-0.33525 -1.98999,-0.50641 -3.00602,-0.63456 -1.29452,-0.16327 -2.60884,-0.25446 -3.91074,-0.16783 -0.96799,0.0644 -1.95953,0.16208 -2.86552,0.50895 -0.52331,0.20037 -1.00256,0.52223 -1.42829,0.88659 -0.52937,0.45307 -1.36344,1.5845 -1.36344,1.5845 z"/><path id="path2996-3-9" fill="none" stroke="#000" stroke-dasharray="none" stroke-linecap="round" stroke-linejoin="miter" stroke-miterlimit="4" stroke-opacity="1" stroke-width="12" d="m 419.45566,390.66698 c 21.03666,43.12726 4.65982,9.55312 21.10182,43.26082"/><path id="path3862" fill="none" stroke="#000" stroke-dasharray="none" stroke-linecap="butt" stroke-linejoin="miter" stroke-miterlimit="4" stroke-opacity="1" stroke-width="2.5" d="m 370.64996,420.76253 c -16.39137,-8.58122 -9.83621,-29.01986 -9.83621,-29.01986 0,0 36.0327,-3.29636 35.99914,-26.69533 -0.0483,-33.64273 -93.22821,-37.31297 -95.32305,-2.83971 -1.72786,28.4341 36.76804,30.3544 36.76804,30.3544 0,0 0.0536,0.0214 11.87598,14.80852 14.49645,18.13165 20.5161,13.39198 20.5161,13.39198 z"/><text id="text3864" x="294.905" y="390.809" fill="#000" fill-opacity="1" stroke="none" font-family="Sans" font-size="10" font-style="normal" font-weight="normal" letter-spacing="0" transform="matrix(0.99908038,-0.0428765,0.0428765,0.99908038,0,0)" word-spacing="0" xml:space="preserve" style="line-height:125%"><tspan style="-inkscape-font-specification:Times New Roman" id="tspan3866" x="294.905" y="390.809" font-family="Times New Roman" font-size="36">Caw!</tspan></text><path id="path3868" fill="#000" fill-opacity="1" stroke="#000" stroke-dasharray="none" stroke-linecap="butt" stroke-linejoin="miter" stroke-miterlimit="4" stroke-opacity="1" stroke-width="2.5" d="m 416.28934,385.12614 c -9.55797,-0.1591 -17.6694,20.61644 3.82699,19.11024 11.71497,-0.82084 7.13931,-18.9277 -3.82699,-19.11024 z"/><path id="path3011" fill="#000" stroke="#000" stroke-linecap="butt" stroke-linejoin="miter" stroke-opacity="1" stroke-width="1" d="m 406.18569,394.00639 c -9.6264,9.15936 -20.16211,10.67722 -20.16211,10.67722 -3.27281,-0.58174 -7.08934,2.03548 -8.03572,6.33929 -0.36382,1.65454 0.625,4.64286 0.625,4.64286 0.26779,-1.06545 0.94874,-2.13886 2.94643,-3.39286 0.73821,-0.73433 22.68814,-10.02489 28.81997,-8.97447 -5.33783,1.47446 -21.67711,12.18876 -23.73069,13.34947 -2.44073,1.37953 -4.7016,2.51228 -4.73214,5.08928 1.75517,1.14843 3.56364,1.42246 8.125,0.17857 4.2929,-1.17068 6.88182,-6.47784 9.57012,-8.52311 2.49936,-1.90151 16.09953,-7.9501 17.75131,-8.17332 z"/></g><rect id="rect3042" width="225.011" height="127.784" x="298.753" y="335.154" fill="none" stroke="#fff" stroke-dasharray="none" stroke-dashoffset="0" stroke-linecap="butt" stroke-miterlimit="4" stroke-opacity="1" stroke-width="1"/></g></g></g></g></svg>